<svg width="28" height="27" viewBox="0 0 28 27" fill="none" xmlns="http://www.w3.org/2000/svg">
<path d="M20.9998 24.75C21.6187 24.75 22.2122 24.5129 22.6498 24.091C23.0873 23.669 23.3332 23.0967 23.3332 22.5V9L16.3332 2.25H6.99984C6.381 2.25 5.78751 2.48705 5.34992 2.90901C4.91234 3.33097 4.6665 3.90326 4.6665 4.5V22.5C4.6665 23.0967 4.91234 23.669 5.34992 24.091C5.78751 24.5129 6.381 24.75 6.99984 24.75H20.9998ZM15.1665 4.5L20.9998 10.125H15.1665V4.5ZM8.1665 9H11.6665V11.25H8.1665V9ZM8.1665 13.5H19.8332V15.75H8.1665V13.5ZM8.1665 18H19.8332V20.25H8.1665V18Z" fill="#CCCCCC"/>
</svg>
