<svg width="26" height="23" viewBox="0 0 26 23" fill="none" xmlns="http://www.w3.org/2000/svg">
<path d="M0 4.6C0 3.38 0.608728 2.20998 1.69227 1.34731C2.77582 0.484642 4.24542 0 5.77778 0H26V23H5.77778C4.24542 23 2.77582 22.5154 1.69227 21.6527C0.608728 20.79 0 19.62 0 18.4V4.6ZM2.88889 14.4152C3.76735 14.0119 4.76368 13.7997 5.77778 13.8H23.1111V2.3H5.77778C5.0116 2.3 4.2768 2.54232 3.73502 2.97365C3.19325 3.40499 2.88889 3.99 2.88889 4.6V14.4152ZM23.1111 16.1H5.77778C5.0116 16.1 4.2768 16.3423 3.73502 16.7737C3.19325 17.205 2.88889 17.79 2.88889 18.4C2.88889 19.01 3.19325 19.595 3.73502 20.0263C4.2768 20.4577 5.0116 20.7 5.77778 20.7H23.1111V16.1ZM10.1111 4.6H20.2222V6.9H10.1111V4.6Z" fill="white"/>
</svg>
