<svg width="23" height="19" viewBox="0 0 23 19" fill="none" xmlns="http://www.w3.org/2000/svg">
<path d="M11.7662 2.93823C11.6948 2.87783 11.5999 2.84412 11.5012 2.84412C11.4025 2.84412 11.3076 2.87783 11.2362 2.93823L2.41477 10.397C2.37731 10.4287 2.34751 10.4668 2.32716 10.509C2.30682 10.5513 2.29636 10.5967 2.29642 10.6426L2.29498 17.6429C2.29498 18.0028 2.45653 18.348 2.74408 18.6025C3.03164 18.857 3.42165 19 3.82831 19H8.43309C8.63643 19 8.83143 18.9285 8.97521 18.8013C9.11898 18.674 9.19976 18.5014 9.19976 18.3214V12.5536C9.19976 12.4636 9.24014 12.3773 9.31203 12.3137C9.38392 12.25 9.48142 12.2143 9.58309 12.2143H13.4164C13.5181 12.2143 13.6156 12.25 13.6875 12.3137C13.7594 12.3773 13.7997 12.4636 13.7997 12.5536V18.3214C13.7997 18.5014 13.8805 18.674 14.0243 18.8013C14.1681 18.9285 14.3631 19 14.5664 19H19.1693C19.5759 19 19.9659 18.857 20.2535 18.6025C20.5411 18.348 20.7026 18.0028 20.7026 17.6429V10.6426C20.7027 10.5967 20.6922 10.5513 20.6719 10.509C20.6515 10.4668 20.6217 10.4287 20.5843 10.397L11.7662 2.93823Z" fill="white"/>
<path d="M22.7561 8.99743L19.1719 5.96252V1.35714C19.1719 1.17717 19.0911 1.00458 18.9474 0.87732C18.8036 0.750064 18.6086 0.678571 18.4052 0.678571H16.1052C15.9019 0.678571 15.7069 0.750064 15.5631 0.87732C15.4194 1.00458 15.3386 1.17717 15.3386 1.35714V2.71429L12.5633 0.36558C12.3035 0.13317 11.9173 0 11.5 0C11.0841 0 10.6988 0.13317 10.4391 0.366004L0.247268 8.99658C-0.0507734 9.25105 -0.0881483 9.66964 0.183059 9.94531C0.251164 10.0149 0.334553 10.0715 0.428152 10.1116C0.521751 10.1518 0.623602 10.1747 0.727507 10.1789C0.831411 10.1831 0.935196 10.1685 1.03254 10.1361C1.12989 10.1037 1.21877 10.0541 1.29376 9.99027L11.2364 1.58107C11.3078 1.52067 11.4027 1.48696 11.5014 1.48696C11.6002 1.48696 11.6951 1.52067 11.7664 1.58107L21.71 9.99027C21.8565 10.1146 22.0527 10.1824 22.2556 10.1789C22.4585 10.1754 22.6516 10.1009 22.7925 9.97161C23.0867 9.70187 23.0623 9.25656 22.7561 8.99743Z" fill="white"/>
</svg>
