<svg width="25" height="23" viewBox="0 0 25 23" fill="none" xmlns="http://www.w3.org/2000/svg">
<path d="M15.9425 8.94444C17.15 8.94444 18.13 9.94622 18.13 11.1806V17.2487C18.13 18.7741 17.5372 20.2369 16.4821 21.3155C15.427 22.3941 13.9959 23 12.5038 23C11.0116 23 9.58052 22.3941 8.52539 21.3155C7.47026 20.2369 6.8775 18.7741 6.8775 17.2487V11.1806C6.8775 9.94622 7.85625 8.94444 9.065 8.94444H15.9425ZM6.41375 8.94444C5.96208 9.49742 5.69108 10.181 5.63875 10.8994L5.62625 11.1806V17.2487C5.62625 18.331 5.86625 19.3558 6.29375 20.2707C5.88042 20.3857 5.44917 20.4436 5 20.4444C4.34329 20.4444 3.693 20.3122 3.08629 20.0553C2.47958 19.7983 1.92833 19.4217 1.46402 18.947C0.999715 18.4722 0.631444 17.9086 0.380244 17.2884C0.129044 16.6681 -0.000164022 16.0034 1.56264e-07 15.3321V11.1806C2.0662e-05 10.6194 0.206464 10.0787 0.57835 9.66589C0.950236 9.25307 1.46037 8.99829 2.0075 8.95211L2.1875 8.94444H6.41375ZM18.5938 8.94444H22.8125C24.02 8.94444 25 9.94622 25 11.1806V15.3333C25.0002 16.1168 24.8241 16.8899 24.4855 17.5927C24.1468 18.2956 23.6547 18.9095 23.047 19.3869C22.4393 19.8644 21.7323 20.1926 20.9807 20.3463C20.2292 20.5 19.4531 20.475 18.7125 20.2732C19.0875 19.4708 19.3175 18.5866 19.3688 17.6512L19.38 17.2487V11.1806C19.38 10.3308 19.0863 9.55139 18.5938 8.94444ZM12.5 0C13.4946 0 14.4484 0.403868 15.1517 1.12276C15.8549 1.84165 16.25 2.81667 16.25 3.83333C16.25 4.85 15.8549 5.82502 15.1517 6.54391C14.4484 7.2628 13.4946 7.66667 12.5 7.66667C11.5054 7.66667 10.5516 7.2628 9.84835 6.54391C9.14509 5.82502 8.75 4.85 8.75 3.83333C8.75 2.81667 9.14509 1.84165 9.84835 1.12276C10.5516 0.403868 11.5054 0 12.5 0ZM20.625 1.27778C21.4538 1.27778 22.2487 1.61433 22.8347 2.21341C23.4208 2.81248 23.75 3.625 23.75 4.47222C23.75 5.31944 23.4208 6.13196 22.8347 6.73104C22.2487 7.33011 21.4538 7.66667 20.625 7.66667C19.7962 7.66667 19.0013 7.33011 18.4153 6.73104C17.8292 6.13196 17.5 5.31944 17.5 4.47222C17.5 3.625 17.8292 2.81248 18.4153 2.21341C19.0013 1.61433 19.7962 1.27778 20.625 1.27778ZM4.375 1.27778C5.2038 1.27778 5.99866 1.61433 6.58471 2.21341C7.17076 2.81248 7.5 3.625 7.5 4.47222C7.5 5.31944 7.17076 6.13196 6.58471 6.73104C5.99866 7.33011 5.2038 7.66667 4.375 7.66667C3.5462 7.66667 2.75134 7.33011 2.16529 6.73104C1.57924 6.13196 1.25 5.31944 1.25 4.47222C1.25 3.625 1.57924 2.81248 2.16529 2.21341C2.75134 1.61433 3.5462 1.27778 4.375 1.27778Z" fill="#ffff"/>
</svg>
