<svg width="43" height="35" viewBox="0 0 43 35" fill="none" xmlns="http://www.w3.org/2000/svg">
<path d="M10.7501 2.91663H26.8751C27.8254 2.91663 28.7369 3.22392 29.4089 3.7709C30.0809 4.31788 30.4584 5.05974 30.4584 5.83329V8.74996H26.8751V5.83329H10.7501V29.1666H26.8751V26.25H30.4584V29.1666C30.4584 29.9402 30.0809 30.682 29.4089 31.229C28.7369 31.776 27.8254 32.0833 26.8751 32.0833H10.7501C9.79972 32.0833 8.88829 31.776 8.21628 31.229C7.54428 30.682 7.16675 29.9402 7.16675 29.1666V5.83329C7.16675 5.05974 7.54428 4.31788 8.21628 3.7709C8.88829 3.22392 9.79972 2.91663 10.7501 2.91663Z" fill="white"/>
<path d="M25.2447 22.7355L27.7709 24.7917L36.7292 17.5L27.7709 10.2084L25.2447 12.2646L29.8672 16.0417H12.5417V18.9584H29.8672L25.2447 22.7355Z" fill="white"/>
</svg>
