<svg width="32" height="31" viewBox="0 0 32 31" fill="none" xmlns="http://www.w3.org/2000/svg">
<path d="M26 5.16667H22V3.22917C22 3.05788 21.9298 2.89361 21.8048 2.77249C21.6797 2.65138 21.5102 2.58333 21.3334 2.58333C21.1565 2.58333 20.987 2.65138 20.8619 2.77249C20.7369 2.89361 20.6667 3.05788 20.6667 3.22917V5.16667H11.3334V3.22917C11.3334 3.05788 11.2631 2.89361 11.1381 2.77249C11.0131 2.65138 10.8435 2.58333 10.6667 2.58333C10.4899 2.58333 10.3203 2.65138 10.1953 2.77249C10.0703 2.89361 10 3.05788 10 3.22917V5.16667H6.00002C5.11629 5.16769 4.26906 5.50824 3.64417 6.1136C3.01927 6.71897 2.66775 7.53972 2.66669 8.39583V25.1875C2.66775 26.0436 3.01927 26.8644 3.64417 27.4697C4.26906 28.0751 5.11629 28.4156 6.00002 28.4167H26C26.8839 28.416 27.7313 28.0756 28.3563 27.4701C28.9812 26.8647 29.3326 26.0437 29.3334 25.1875V8.39583C29.3326 7.53962 28.9812 6.71866 28.3563 6.11322C27.7313 5.50779 26.8839 5.16735 26 5.16667ZM28 25.1875C28 25.7014 27.7893 26.1942 27.4142 26.5575C27.0392 26.9209 26.5305 27.125 26 27.125H6.00002C5.46959 27.125 4.96088 26.9209 4.58581 26.5575C4.21073 26.1942 4.00002 25.7014 4.00002 25.1875V14.2083H28V25.1875ZM28 12.9167H4.00002V8.39583C4.00002 7.32633 4.89335 6.45833 6.00002 6.45833H10V8.39583C10 8.56712 10.0703 8.73139 10.1953 8.85251C10.3203 8.97362 10.4899 9.04167 10.6667 9.04167C10.8435 9.04167 11.0131 8.97362 11.1381 8.85251C11.2631 8.73139 11.3334 8.56712 11.3334 8.39583V6.45833H20.6667V8.39583C20.6667 8.56712 20.7369 8.73139 20.8619 8.85251C20.987 8.97362 21.1565 9.04167 21.3334 9.04167C21.5102 9.04167 21.6797 8.97362 21.8048 8.85251C21.9298 8.73139 22 8.56712 22 8.39583V6.45833H26C26.5305 6.45833 27.0392 6.66246 27.4142 7.02581C27.7893 7.38917 28 7.88198 28 8.39583V12.9167Z" fill="white"/>
</svg>
