<svg width="24" height="22" viewBox="0 0 24 22" fill="none" xmlns="http://www.w3.org/2000/svg">
<path d="M10.2857 0C8.4 0 6.85714 1.2375 6.85714 2.75H3.42857C1.54286 2.75 0 3.9875 0 5.5H24C24 3.9875 22.4571 2.75 20.5714 2.75H17.1429C17.1429 1.2375 15.6 0 13.7143 0H10.2857ZM3.42857 8.25V21.4775C3.42857 21.78 3.70286 22 4.08 22H19.9543C20.3314 22 20.6057 21.78 20.6057 21.4775V8.25H17.1771V17.875C17.1771 18.645 16.4229 19.25 15.4629 19.25C14.5029 19.25 13.7486 18.645 13.7486 17.875V8.25H10.32V17.875C10.32 18.645 9.56571 19.25 8.60571 19.25C7.64571 19.25 6.89143 18.645 6.89143 17.875V8.25H3.46286H3.42857Z" fill="#005073"/>
</svg>
