<svg width="258" height="243" viewBox="0 0 258 243" fill="none" xmlns="http://www.w3.org/2000/svg">
<path d="M129 15.1875C158.936 15.1875 187.646 26.3882 208.815 46.3257C229.983 66.2632 241.875 93.3042 241.875 121.5C241.875 149.696 229.983 176.737 208.815 196.674C187.646 216.612 158.936 227.812 129 227.812C99.0637 227.812 70.3535 216.612 49.1853 196.674C28.0172 176.737 16.125 149.696 16.125 121.5C16.125 93.3042 28.0172 66.2632 49.1853 46.3257C70.3535 26.3882 99.0637 15.1875 129 15.1875ZM114.939 142.474L89.8646 118.842C88.9657 117.996 87.8986 117.324 86.7241 116.866C85.5496 116.408 84.2908 116.172 83.0196 116.172C81.7483 116.172 80.4895 116.408 79.315 116.866C78.1406 117.324 77.0734 117.996 76.1745 118.842C74.3591 120.552 73.3392 122.871 73.3392 125.289C73.3392 127.707 74.3591 130.026 76.1745 131.736L108.102 161.808C108.998 162.659 110.065 163.334 111.239 163.795C112.414 164.256 113.674 164.493 114.947 164.493C116.22 164.493 117.48 164.256 118.655 163.795C119.829 163.334 120.896 162.659 121.792 161.808L187.905 99.5237C188.816 98.6805 189.54 97.6759 190.037 96.5677C190.533 95.4594 190.792 94.2696 190.798 93.0667C190.804 91.8638 190.557 90.6717 190.071 89.5592C189.586 88.4466 188.871 87.4357 187.969 86.5846C187.066 85.7335 185.993 85.0591 184.813 84.6004C183.632 84.1417 182.367 83.9077 181.09 83.9118C179.812 83.916 178.549 84.1583 177.372 84.6247C176.194 85.0912 175.127 85.7725 174.231 86.6295L114.939 142.474Z" fill="#4ECB71"/>
</svg>
