<svg width="18" height="20" viewBox="0 0 18 20" fill="none" xmlns="http://www.w3.org/2000/svg">
<path d="M17.68 5.014C17.4579 4.54995 17.1451 4.13512 16.76 3.794L13.76 1.074C13.0997 0.468752 12.2613 0.0933928 11.37 0.00400142H5.21C4.54756 -0.0240897 3.88615 0.079854 3.26425 0.309783C2.64236 0.539712 2.07241 0.891033 1.58757 1.3433C1.10273 1.79557 0.712687 2.33975 0.440135 2.94418C0.167584 3.54861 0.0179697 4.20121 0 4.864V15.164C0.0353758 16.1635 0.369694 17.1295 0.959752 17.937C1.54981 18.7446 2.36849 19.3566 3.31 19.694C3.92241 19.9255 4.57615 20.0277 5.23 19.994H12.79C13.4524 20.0221 14.1139 19.9181 14.7357 19.6882C15.3576 19.4583 15.9276 19.107 16.4124 18.6547C16.8973 18.2024 17.2873 17.6582 17.5599 17.0538C17.8324 16.4494 17.982 15.7968 18 15.134V6.564C18.0048 6.03045 17.8957 5.50202 17.68 5.014ZM12.84 13.094L10.18 15.764C10.027 15.9131 9.8472 16.0319 9.65 16.114C9.517 16.174 9.375 16.211 9.23 16.224C9.09835 16.254 8.96165 16.254 8.83 16.224C8.68485 16.211 8.54289 16.1738 8.41 16.114C8.2128 16.0319 8.03296 15.9131 7.88 15.764L5.22 13.094C5.05617 12.9027 4.97057 12.6566 4.98029 12.4049C4.99001 12.1533 5.09434 11.9145 5.27244 11.7364C5.45053 11.5583 5.68927 11.454 5.94095 11.4443C6.19262 11.4346 6.4387 11.5202 6.63 11.684L8.03 13.084V8.474C8.03 8.20879 8.13536 7.95443 8.32289 7.76689C8.51043 7.57936 8.76478 7.474 9.03 7.474C9.29522 7.474 9.54957 7.57936 9.73711 7.76689C9.92464 7.95443 10.03 8.20879 10.03 8.474V13.084L11.43 11.684C11.6213 11.5202 11.8674 11.4346 12.1191 11.4443C12.3707 11.454 12.6095 11.5583 12.7876 11.7364C12.9657 11.9145 13.07 12.1533 13.0797 12.4049C13.0894 12.6566 13.0038 12.9027 12.84 13.094ZM13.06 5.404C12.9173 5.40532 12.7758 5.37836 12.6436 5.32468C12.5114 5.271 12.3912 5.19165 12.2899 5.09123C12.1885 4.99082 12.1081 4.87131 12.0532 4.73962C11.9983 4.60793 11.97 4.46667 11.97 4.324V1.674C12.25 1.826 12.521 1.996 12.78 2.184L15.78 4.914C15.946 5.054 16.087 5.219 16.2 5.404H13.06Z" fill="#71A430"/>
</svg>
