<svg width="319" height="224" viewBox="0 0 319 224" fill="none" xmlns="http://www.w3.org/2000/svg">
<path opacity="0.2" d="M272.99 14.5201C272.99 14.5201 214.897 32.8265 201.82 86.8356L204.849 91.7628C204.849 91.7628 259.354 69.4526 272.99 14.5201Z" fill="#00FF0A"/>
<path opacity="0.1" d="M205.161 91.663L204.857 91.7928C220.123 50.6418 271.236 15.3125 272.9 14.5442C259.906 66.9995 209.52 89.7049 205.161 91.663Z" fill="#00FF0A"/>
<path d="M199.382 82.9107C193.837 90.7902 190.935 100.226 191.095 109.86L194.579 112.634C194.579 112.634 194.905 103.261 204.811 91.7408L199.382 82.9107Z" fill="#00FF0A"/>
<path opacity="0.1" d="M199.382 82.9108C199.382 82.9108 204.669 67.8081 227.839 59.1655C251.01 50.5228 296.268 46.3432 296.268 46.3432C296.268 46.3432 254.586 83.3042 234.385 88.1689C214.184 93.0336 204.754 91.7079 204.754 91.7079L199.382 82.9108Z" fill="#00FF0A"/>
<path opacity="0.2" d="M316.116 107.666C316.116 107.666 264.415 75.5279 214.903 100.772L213.142 106.29C213.142 106.29 265.568 133.075 316.116 107.666Z" fill="#00FF0A"/>
<path opacity="0.1" d="M213.436 106.485L213.15 106.32C254.306 91.1009 314.408 106.883 316.06 107.633C267.797 131.946 217.759 108.599 213.436 106.485Z" fill="#00FF0A"/>
<g opacity="0.2">
<path d="M303.711 155.579C303.711 155.579 295.223 148.568 282.083 138.515C266.774 126.804 244.781 111.563 216.52 107.223L211.875 110.643C211.875 110.643 242.715 153.546 303.711 155.579Z" fill="#00FF0A"/>
</g>
<path d="M215.211 100.416C205.617 101.333 196.563 105.277 189.358 111.68L189.532 116.179C189.532 116.179 196.911 110.268 212.051 110.338L215.211 100.416Z" fill="#00FF0A"/>
<g opacity="0.1">
<path d="M215.309 100.422C215.309 100.422 228.008 101.549 252.948 106.489C266.592 109.281 280.75 115.853 292.987 120.553C307.548 126.163 318.906 129.568 318.906 129.568C318.906 129.568 252.047 142.533 234.7 130.433C217.352 118.332 212.05 110.338 212.05 110.338L215.309 100.422Z" fill="#00FF0A"/>
</g>
<path opacity="0.2" d="M184.753 96.8412C166.289 83.0241 149.464 67.1423 134.606 49.5046C127.126 40.8069 120.806 31.1752 115.805 20.8508C115.805 20.8508 116.719 48.0265 144.994 76.9628C173.269 105.899 184.355 114.487 184.355 114.487L184.753 96.8412Z" fill="#00FF0A"/>
<path d="M191.299 149.848C191.299 149.848 204.256 120.535 199.345 109.487C194.434 98.4385 99.0091 43.1159 66.4431 33.9001C66.4431 33.9001 109.527 75.1498 129.603 90.9363C149.679 106.723 170.924 118.327 176.081 123.974C181.237 129.621 179.193 155.445 179.193 155.445L191.299 149.848Z" fill="#00FF0A"/>
<path d="M45.1136 178.75H35.1591C34.9773 177.462 34.6061 176.318 34.0455 175.318C33.4849 174.303 32.7652 173.439 31.8864 172.727C31.0076 172.015 29.9924 171.47 28.8409 171.091C27.7045 170.712 26.4697 170.523 25.1364 170.523C22.7273 170.523 20.6288 171.121 18.8409 172.318C17.053 173.5 15.6667 175.227 14.6818 177.5C13.697 179.758 13.2045 182.5 13.2045 185.727C13.2045 189.045 13.697 191.833 14.6818 194.091C15.6818 196.348 17.0758 198.053 18.8636 199.205C20.6515 200.356 22.7197 200.932 25.0682 200.932C26.3864 200.932 27.6061 200.758 28.7273 200.409C29.8636 200.061 30.8712 199.553 31.75 198.886C32.6288 198.205 33.3561 197.379 33.9318 196.409C34.5227 195.439 34.9318 194.333 35.1591 193.091L45.1136 193.136C44.8561 195.273 44.2121 197.333 43.1818 199.318C42.1667 201.288 40.7955 203.053 39.0682 204.614C37.3561 206.159 35.3106 207.386 32.9318 208.295C30.5682 209.189 27.8939 209.636 24.9091 209.636C20.7576 209.636 17.0455 208.697 13.7727 206.818C10.5152 204.939 7.93939 202.22 6.04545 198.659C4.16667 195.098 3.22727 190.788 3.22727 185.727C3.22727 180.652 4.18182 176.333 6.09091 172.773C8 169.212 10.5909 166.5 13.8636 164.636C17.1364 162.758 20.8182 161.818 24.9091 161.818C27.6061 161.818 30.1061 162.197 32.4091 162.955C34.7273 163.712 36.7803 164.818 38.5682 166.273C40.3561 167.712 41.8106 169.477 42.9318 171.568C44.0682 173.659 44.7955 176.053 45.1136 178.75ZM61.9432 209.659C59.7159 209.659 57.7311 209.273 55.9886 208.5C54.2462 207.712 52.8674 206.553 51.8523 205.023C50.8523 203.477 50.3523 201.553 50.3523 199.25C50.3523 197.311 50.7083 195.682 51.4205 194.364C52.1326 193.045 53.1023 191.985 54.3295 191.182C55.5568 190.379 56.9508 189.773 58.5114 189.364C60.0871 188.955 61.7386 188.667 63.4659 188.5C65.4962 188.288 67.1326 188.091 68.375 187.909C69.6174 187.712 70.5189 187.424 71.0795 187.045C71.6402 186.667 71.9205 186.106 71.9205 185.364V185.227C71.9205 183.788 71.4659 182.674 70.5568 181.886C69.6629 181.098 68.3902 180.705 66.7386 180.705C64.9962 180.705 63.6098 181.091 62.5795 181.864C61.5492 182.621 60.8674 183.576 60.5341 184.727L51.5795 184C52.0341 181.879 52.928 180.045 54.2614 178.5C55.5947 176.939 57.3144 175.742 59.4205 174.909C61.5417 174.061 63.9962 173.636 66.7841 173.636C68.7235 173.636 70.5795 173.864 72.3523 174.318C74.1402 174.773 75.7235 175.477 77.1023 176.432C78.4962 177.386 79.5947 178.614 80.3977 180.114C81.2008 181.598 81.6023 183.379 81.6023 185.455V209H72.4205V204.159H72.1477C71.5871 205.25 70.8371 206.212 69.8977 207.045C68.9583 207.864 67.8295 208.508 66.5114 208.977C65.1932 209.432 63.6705 209.659 61.9432 209.659ZM64.7159 202.977C66.1402 202.977 67.3977 202.697 68.4886 202.136C69.5795 201.561 70.4356 200.788 71.0568 199.818C71.678 198.848 71.9886 197.75 71.9886 196.523V192.818C71.6856 193.015 71.2689 193.197 70.7386 193.364C70.2235 193.515 69.6402 193.659 68.9886 193.795C68.3371 193.917 67.6856 194.03 67.0341 194.136C66.3826 194.227 65.7917 194.311 65.2614 194.386C64.125 194.553 63.1326 194.818 62.2841 195.182C61.4356 195.545 60.7765 196.038 60.3068 196.659C59.8371 197.265 59.6023 198.023 59.6023 198.932C59.6023 200.25 60.0795 201.258 61.0341 201.955C62.0038 202.636 63.2311 202.977 64.7159 202.977ZM89.1136 209V174.091H98.5V180.182H98.8636C99.5 178.015 100.568 176.379 102.068 175.273C103.568 174.152 105.295 173.591 107.25 173.591C107.735 173.591 108.258 173.621 108.818 173.682C109.379 173.742 109.871 173.826 110.295 173.932V182.523C109.841 182.386 109.212 182.265 108.409 182.159C107.606 182.053 106.871 182 106.205 182C104.78 182 103.508 182.311 102.386 182.932C101.28 183.538 100.402 184.386 99.75 185.477C99.1136 186.568 98.7955 187.826 98.7955 189.25V209H89.1136ZM129.585 209.682C125.994 209.682 122.903 208.955 120.312 207.5C117.737 206.03 115.752 203.955 114.358 201.273C112.964 198.576 112.267 195.386 112.267 191.705C112.267 188.114 112.964 184.962 114.358 182.25C115.752 179.538 117.714 177.424 120.244 175.909C122.79 174.394 125.775 173.636 129.199 173.636C131.502 173.636 133.646 174.008 135.631 174.75C137.631 175.477 139.373 176.576 140.858 178.045C142.358 179.515 143.525 181.364 144.358 183.591C145.191 185.803 145.608 188.394 145.608 191.364V194.023H116.131V188.023H136.494C136.494 186.629 136.191 185.394 135.585 184.318C134.979 183.242 134.138 182.402 133.062 181.795C132.002 181.174 130.767 180.864 129.358 180.864C127.888 180.864 126.585 181.205 125.449 181.886C124.328 182.553 123.449 183.455 122.812 184.591C122.176 185.712 121.85 186.962 121.835 188.341V194.045C121.835 195.773 122.153 197.265 122.79 198.523C123.441 199.78 124.358 200.75 125.54 201.432C126.722 202.114 128.123 202.455 129.744 202.455C130.82 202.455 131.805 202.303 132.699 202C133.593 201.697 134.358 201.242 134.994 200.636C135.631 200.03 136.116 199.288 136.449 198.409L145.403 199C144.949 201.152 144.017 203.03 142.608 204.636C141.214 206.227 139.411 207.47 137.199 208.364C135.002 209.242 132.464 209.682 129.585 209.682Z" fill="white"/>
<path d="M180.858 162.455H190.699V192.682C190.699 196.076 189.888 199.045 188.267 201.591C186.661 204.136 184.411 206.121 181.517 207.545C178.623 208.955 175.252 209.659 171.403 209.659C167.54 209.659 164.161 208.955 161.267 207.545C158.373 206.121 156.123 204.136 154.517 201.591C152.911 199.045 152.108 196.076 152.108 192.682V162.455H161.949V191.841C161.949 193.614 162.335 195.189 163.108 196.568C163.896 197.947 165.002 199.03 166.426 199.818C167.85 200.606 169.509 201 171.403 201C173.313 201 174.972 200.606 176.381 199.818C177.805 199.03 178.903 197.947 179.676 196.568C180.464 195.189 180.858 193.614 180.858 191.841V162.455ZM224.045 175.841C223.864 174.008 223.083 172.583 221.705 171.568C220.326 170.553 218.455 170.045 216.091 170.045C214.485 170.045 213.129 170.273 212.023 170.727C210.917 171.167 210.068 171.78 209.477 172.568C208.902 173.356 208.614 174.25 208.614 175.25C208.583 176.083 208.758 176.811 209.136 177.432C209.53 178.053 210.068 178.591 210.75 179.045C211.432 179.485 212.22 179.871 213.114 180.205C214.008 180.523 214.962 180.795 215.977 181.023L220.159 182.023C222.189 182.477 224.053 183.083 225.75 183.841C227.447 184.598 228.917 185.53 230.159 186.636C231.402 187.742 232.364 189.045 233.045 190.545C233.742 192.045 234.098 193.765 234.114 195.705C234.098 198.553 233.371 201.023 231.932 203.114C230.508 205.189 228.447 206.803 225.75 207.955C223.068 209.091 219.833 209.659 216.045 209.659C212.288 209.659 209.015 209.083 206.227 207.932C203.455 206.78 201.288 205.076 199.727 202.818C198.182 200.545 197.371 197.735 197.295 194.386H206.818C206.924 195.947 207.371 197.25 208.159 198.295C208.962 199.326 210.03 200.106 211.364 200.636C212.712 201.152 214.235 201.409 215.932 201.409C217.598 201.409 219.045 201.167 220.273 200.682C221.515 200.197 222.477 199.523 223.159 198.659C223.841 197.795 224.182 196.803 224.182 195.682C224.182 194.636 223.871 193.758 223.25 193.045C222.644 192.333 221.75 191.727 220.568 191.227C219.402 190.727 217.97 190.273 216.273 189.864L211.205 188.591C207.28 187.636 204.182 186.144 201.909 184.114C199.636 182.083 198.508 179.348 198.523 175.909C198.508 173.091 199.258 170.629 200.773 168.523C202.303 166.417 204.402 164.773 207.068 163.591C209.735 162.409 212.765 161.818 216.159 161.818C219.614 161.818 222.629 162.409 225.205 163.591C227.795 164.773 229.811 166.417 231.25 168.523C232.689 170.629 233.432 173.068 233.477 175.841H224.045Z" fill="#00FF0A"/>
</svg>
