<svg width="20" height="21" viewBox="0 0 20 21" fill="none" xmlns="http://www.w3.org/2000/svg">
<path d="M16.6663 7.875V16.625C16.6663 17.0891 16.4907 17.5342 16.1782 17.8624C15.8656 18.1906 15.4417 18.375 14.9997 18.375H4.99967C4.55765 18.375 4.13372 18.1906 3.82116 17.8624C3.5086 17.5342 3.33301 17.0891 3.33301 16.625V4.375C3.33301 3.91087 3.5086 3.46575 3.82116 3.13756C4.13372 2.80937 4.55765 2.625 4.99967 2.625H11.6663M16.6663 7.875V7.7245C16.6662 7.26041 16.4906 6.81536 16.178 6.48725L12.988 3.13775C12.6755 2.80954 12.2517 2.6251 11.8097 2.625H11.6663M16.6663 7.875H13.333C12.891 7.875 12.4671 7.69063 12.1545 7.36244C11.8419 7.03425 11.6663 6.58913 11.6663 6.125V2.625" stroke="#71A430" stroke-width="2" stroke-linecap="round" stroke-linejoin="round"/>
</svg>
